<svg width="407" height="82" viewBox="0 0 407 82" fill="none" xmlns="http://www.w3.org/2000/svg">
<g clip-path="url(#clip0_106_9)">
<rect x="3" y="5" width="401" height="72" rx="10" fill="url(#paint0_linear_106_9)"/>
<path d="M15.8 24.65C15.8 23.2833 15.95 22.2667 16.25 21.6C16.5833 20.9 17.0667 20.4333 17.7 20.2C18.3667 19.9333 19.3 19.8 20.5 19.8C22.8333 19.8 25.3 20.1 27.9 20.7V22.8H20.35V63.8H27.9V65.9C25.4667 66.5333 23 66.85 20.5 66.85C19.3 66.85 18.3667 66.7167 17.7 66.45C17.0667 66.2167 16.5833 65.75 16.25 65.05C15.95 64.3833 15.8 63.3667 15.8 62V24.65ZM39.7367 25.95L35.0867 25.35V22.85H49.7867V25.35L45.1367 25.95V57.05L49.7867 57.6V60H35.1367V57.55L39.7367 57.05V25.95ZM59.0527 25.95L55.0527 25.35V22.85H64.3527L81.0027 47.25L83.8027 52.55V25.95L79.4527 25.35V22.85H91.2527V25.35L87.2527 25.95V60H83.3027L66.3027 35.05L62.4527 28.45V57.05L67.2027 57.55V60H55.0527V57.55L59.0527 57V25.95ZM106.994 60.55C105.261 60.55 103.711 60.4 102.344 60.1C100.977 59.8 99.4775 59.4 97.8441 58.9C96.8441 58.5333 96.0941 58.3333 95.5941 58.3L95.9941 49.25H99.1941L100.044 55.75C100.611 56.2833 101.527 56.7667 102.794 57.2C104.094 57.6 105.511 57.8 107.044 57.8C109.577 57.8 111.494 57.2333 112.794 56.1C114.127 54.9667 114.794 53.4 114.794 51.4C114.794 50.1 114.427 48.9833 113.694 48.05C112.994 47.1167 112.044 46.3167 110.844 45.65C109.677 44.9833 108.061 44.2 105.994 43.3C104.127 42.4667 102.494 41.6167 101.094 40.75C99.7275 39.8833 98.5275 38.7333 97.4941 37.3C96.4941 35.8333 95.9941 34.0833 95.9941 32.05C95.9941 30.2167 96.4775 28.5833 97.4441 27.15C98.4441 25.6833 99.8608 24.5333 101.694 23.7C103.561 22.8667 105.727 22.45 108.194 22.45C109.727 22.45 111.077 22.5667 112.244 22.8C113.444 23.0333 114.794 23.35 116.294 23.75C116.961 23.9833 117.527 24.1333 117.994 24.2L117.694 32.6H114.644L113.644 26.45C113.311 26.1167 112.611 25.8 111.544 25.5C110.511 25.2 109.377 25.05 108.144 25.05C105.844 25.05 104.094 25.5333 102.894 26.5C101.727 27.4667 101.144 28.8667 101.144 30.7C101.144 32.0333 101.494 33.15 102.194 34.05C102.927 34.95 103.827 35.7167 104.894 36.35C105.961 36.9833 107.661 37.85 109.994 38.95C112.161 39.9833 113.927 40.9167 115.294 41.75C116.661 42.5833 117.827 43.6833 118.794 45.05C119.794 46.3833 120.294 47.9833 120.294 49.85C120.294 51.6167 119.794 53.3167 118.794 54.95C117.827 56.5833 116.327 57.9333 114.294 59C112.294 60.0333 109.861 60.55 106.994 60.55ZM136.682 25.5L128.082 25.8L126.332 36.25H123.032L123.882 22.85H155.032L155.632 36.25H152.482L150.832 25.8L142.182 25.5V57.05L149.282 57.55V60H130.182V57.55L136.682 57.05V25.5ZM171.301 22.55H176.801L188.951 57.05L192.051 57.55V60H178.851V57.55L183.001 57.05L180.651 49.65H166.051L163.701 57.05L168.001 57.55V60H156.151V57.55L159.251 57.05L171.301 22.55ZM174.451 30.55L173.201 26.15L172.001 30.65L166.951 46.7H179.701L174.451 30.55ZM208.02 62C208.02 63.3667 207.853 64.3833 207.52 65.05C207.22 65.75 206.737 66.2167 206.07 66.45C205.437 66.7167 204.52 66.85 203.32 66.85C200.753 66.85 198.287 66.5333 195.92 65.9V63.8H203.42V22.8H195.92V20.7C198.52 20.1 200.987 19.8 203.32 19.8C204.52 19.8 205.437 19.9333 206.07 20.2C206.737 20.4333 207.22 20.9 207.52 21.6C207.853 22.2667 208.02 23.2833 208.02 24.65V62Z" fill="#F65D46"/>
<path d="M217.607 24.65C217.607 23.2833 217.757 22.2667 218.057 21.6C218.39 20.9 218.873 20.4333 219.507 20.2C220.173 19.9333 221.107 19.8 222.307 19.8C224.64 19.8 227.107 20.1 229.707 20.7V22.8H222.157V63.8H229.707V65.9C227.273 66.5333 224.807 66.85 222.307 66.85C221.107 66.85 220.173 66.7167 219.507 66.45C218.873 66.2167 218.39 65.75 218.057 65.05C217.757 64.3833 217.607 63.3667 217.607 62V24.65ZM253.093 60.55C249.427 60.55 246.293 59.7667 243.693 58.2C241.127 56.6 239.177 54.3667 237.843 51.5C236.51 48.6333 235.843 45.2667 235.843 41.4C235.843 37.6667 236.627 34.3667 238.193 31.5C239.76 28.6333 241.91 26.4167 244.643 24.85C247.377 23.25 250.443 22.45 253.843 22.45C256.41 22.45 259.493 22.85 263.093 23.65L264.743 23.95L264.243 32.95H260.893L259.643 26.6C259.177 26.2 258.36 25.8667 257.193 25.6C256.06 25.3 254.66 25.15 252.993 25.15C250.86 25.15 248.96 25.7667 247.293 27C245.627 28.2 244.31 29.9833 243.343 32.35C242.41 34.7167 241.943 37.55 241.943 40.85C241.943 43.9833 242.36 46.8333 243.193 49.4C244.027 51.9667 245.293 54.0167 246.993 55.55C248.693 57.05 250.793 57.8 253.293 57.8C255.06 57.8 256.41 57.65 257.343 57.35C258.31 57.05 259.127 56.6167 259.793 56.05L261.893 51.15L265.043 51.55L263.843 58.65C263.143 58.6833 262.11 58.9167 260.743 59.35C259.543 59.7167 258.377 60 257.243 60.2C256.143 60.4333 254.76 60.55 253.093 60.55ZM281.359 22.55H286.859L299.009 57.05L302.109 57.55V60H288.909V57.55L293.059 57.05L290.709 49.65H276.109L273.759 57.05L278.059 57.55V60H266.209V57.55L269.309 57.05L281.359 22.55ZM284.509 30.55L283.259 26.15L282.059 30.65L277.009 46.7H289.759L284.509 30.55ZM303.779 57.55L307.929 57.05V25.95L304.029 25.3V22.85H310.579C311.512 22.85 312.779 22.7833 314.379 22.65C316.045 22.5167 317.345 22.45 318.279 22.45C323.179 22.45 326.662 23.25 328.729 24.85C330.829 26.4167 331.879 28.9 331.879 32.3C331.879 34.6667 331.212 36.8333 329.879 38.8C328.579 40.7667 326.779 42.1 324.479 42.8C325.545 43.3667 326.529 44.35 327.429 45.75C328.362 47.1167 329.495 49.0333 330.829 51.5C331.862 53.3667 332.645 54.7333 333.179 55.6C333.745 56.4667 334.279 56.95 334.779 57.05L336.729 57.55V60H329.829C329.295 60 328.695 59.4333 328.029 58.3C327.362 57.1333 326.479 55.35 325.379 52.95C324.179 50.3167 323.129 48.2333 322.229 46.7C321.362 45.1333 320.495 44.1333 319.629 43.7C316.062 43.7 313.945 43.6833 313.279 43.65V57.05L318.229 57.55V60H303.779V57.55ZM319.229 41C321.362 41 323.045 40.3 324.279 38.9C325.512 37.5 326.129 35.4167 326.129 32.65C326.129 30.2167 325.495 28.3667 324.229 27.1C322.995 25.8 320.845 25.15 317.779 25.15C316.712 25.15 315.645 25.2167 314.579 25.35C313.912 25.4167 313.479 25.45 313.279 25.45V40.95C313.779 40.9833 314.812 41 316.379 41H319.229ZM343.134 25.95L339.234 25.35V22.85H345.784C346.817 22.85 348.3 22.7833 350.234 22.65C352.167 22.5167 353.617 22.45 354.584 22.45C360.784 22.45 365.384 24.0167 368.384 27.15C371.417 30.25 372.934 34.6167 372.934 40.25C372.934 44.1833 372.15 47.6833 370.584 50.75C369.05 53.7833 366.884 56.15 364.084 57.85C361.284 59.55 358.067 60.4 354.434 60.4C353.634 60.4 352.267 60.3333 350.334 60.2C348.334 60.0667 346.834 60 345.834 60H338.984V57.55L343.134 57.05V25.95ZM348.434 57.2C349.6 57.4667 351.1 57.6 352.934 57.6H354.434C356.934 57.5667 359.134 56.9333 361.034 55.7C362.967 54.4667 364.467 52.6333 365.534 50.2C366.6 47.7333 367.134 44.75 367.134 41.25C367.134 35.9833 365.984 31.9833 363.684 29.25C361.417 26.5167 357.984 25.15 353.384 25.15C352.417 25.15 351.267 25.2167 349.934 25.35C349.367 25.45 348.867 25.5 348.434 25.5V57.2ZM391.174 62C391.174 63.3667 391.008 64.3833 390.674 65.05C390.374 65.75 389.891 66.2167 389.224 66.45C388.591 66.7167 387.674 66.85 386.474 66.85C383.908 66.85 381.441 66.5333 379.074 65.9V63.8H386.574V22.8H379.074V20.7C381.674 20.1 384.141 19.8 386.474 19.8C387.674 19.8 388.591 19.9333 389.224 20.2C389.891 20.4333 390.374 20.9 390.674 21.6C391.008 22.2667 391.174 23.2833 391.174 24.65V62Z" fill="black"/>
</g>
<rect x="0.5" y="0.5" width="406" height="81" rx="1.5" stroke="white" stroke-opacity="0.1"/>
<defs>
<linearGradient id="paint0_linear_106_9" x1="3" y1="41" x2="404" y2="41" gradientUnits="userSpaceOnUse">
<stop stop-color="#F65D46" stop-opacity="0.25"/>
<stop offset="0.5" stop-color="#F65D46" stop-opacity="0.5"/>
<stop offset="0.75" stop-color="#F65D46" stop-opacity="0.75"/>
<stop offset="1" stop-color="#F65D46"/>
</linearGradient>
<clipPath id="clip0_106_9">
<rect width="407" height="82" rx="2" fill="white"/>
</clipPath>
</defs>
</svg>
